<mxfile host="app.diagrams.net" agent="Mozilla/5.0 (Macintosh; Intel Mac OS X 10_15_7) AppleWebKit/537.36 (KHTML, like Gecko) Chrome/131.0.0.0 Safari/537.36" version="25.0.3">
  <diagram name="Page-1" id="fbgcMzLgCZP7VkFeyHUw">
    <mxGraphModel dx="1242" dy="715" grid="1" gridSize="10" guides="1" tooltips="1" connect="1" arrows="1" fold="1" page="1" pageScale="1" pageWidth="827" pageHeight="1169" math="0" shadow="0">
      <root>
        <mxCell id="0" />
        <mxCell id="1" parent="0" />
        <mxCell id="uFCBzY3tjTY6VTeMIP43-33" style="edgeStyle=orthogonalEdgeStyle;rounded=0;orthogonalLoop=1;jettySize=auto;html=1;" parent="1" target="uFCBzY3tjTY6VTeMIP43-31" edge="1">
          <mxGeometry relative="1" as="geometry">
            <mxPoint x="1241" y="530" as="sourcePoint" />
          </mxGeometry>
        </mxCell>
        <mxCell id="uFCBzY3tjTY6VTeMIP43-35" style="edgeStyle=orthogonalEdgeStyle;rounded=0;orthogonalLoop=1;jettySize=auto;html=1;" parent="1" source="uFCBzY3tjTY6VTeMIP43-32" target="uFCBzY3tjTY6VTeMIP43-2" edge="1">
          <mxGeometry relative="1" as="geometry" />
        </mxCell>
        <mxCell id="uFCBzY3tjTY6VTeMIP43-32" value="" style="rounded=0;whiteSpace=wrap;html=1;dashed=1;" parent="1" vertex="1">
          <mxGeometry x="500" y="10" width="740" height="860" as="geometry" />
        </mxCell>
        <mxCell id="uFCBzY3tjTY6VTeMIP43-30" value="/serial-publication" style="verticalLabelPosition=bottom;verticalAlign=top;html=1;shape=mxgraph.basic.rect;fillColor2=none;strokeWidth=1;size=20;indent=5;" parent="1" vertex="1">
          <mxGeometry x="900" y="460" width="310" height="380" as="geometry" />
        </mxCell>
        <mxCell id="uFCBzY3tjTY6VTeMIP43-29" value="/series" style="verticalLabelPosition=bottom;verticalAlign=top;html=1;shape=mxgraph.basic.rect;fillColor2=none;strokeWidth=1;size=20;indent=5;" parent="1" vertex="1">
          <mxGeometry x="900" y="30" width="310" height="380" as="geometry" />
        </mxCell>
        <mxCell id="uFCBzY3tjTY6VTeMIP43-28" value="/publisher" style="verticalLabelPosition=bottom;verticalAlign=top;html=1;shape=mxgraph.basic.rect;fillColor2=none;strokeWidth=1;size=20;indent=5;" parent="1" vertex="1">
          <mxGeometry x="529.5" y="460" width="310" height="380" as="geometry" />
        </mxCell>
        <mxCell id="uFCBzY3tjTY6VTeMIP43-26" value="/journal" style="verticalLabelPosition=bottom;verticalAlign=top;html=1;shape=mxgraph.basic.rect;fillColor2=none;strokeWidth=1;size=20;indent=5;" parent="1" vertex="1">
          <mxGeometry x="529.5" y="30" width="310" height="380" as="geometry" />
        </mxCell>
        <mxCell id="uFCBzY3tjTY6VTeMIP43-1" value="Cognito" style="sketch=0;points=[[0,0,0],[0.25,0,0],[0.5,0,0],[0.75,0,0],[1,0,0],[0,1,0],[0.25,1,0],[0.5,1,0],[0.75,1,0],[1,1,0],[0,0.25,0],[0,0.5,0],[0,0.75,0],[1,0.25,0],[1,0.5,0],[1,0.75,0]];outlineConnect=0;fontColor=#232F3E;fillColor=#DD344C;strokeColor=#ffffff;dashed=0;verticalLabelPosition=bottom;verticalAlign=top;align=center;html=1;fontSize=12;fontStyle=0;aspect=fixed;shape=mxgraph.aws4.resourceIcon;resIcon=mxgraph.aws4.cognito;" parent="1" vertex="1">
          <mxGeometry x="160" y="200" width="80" height="80" as="geometry" />
        </mxCell>
        <mxCell id="uFCBzY3tjTY6VTeMIP43-2" value="API Gateway" style="sketch=0;points=[[0,0,0],[0.25,0,0],[0.5,0,0],[0.75,0,0],[1,0,0],[0,1,0],[0.25,1,0],[0.5,1,0],[0.75,1,0],[1,1,0],[0,0.25,0],[0,0.5,0],[0,0.75,0],[1,0.25,0],[1,0.5,0],[1,0.75,0]];outlineConnect=0;fontColor=#232F3E;fillColor=#8C4FFF;strokeColor=#ffffff;dashed=0;verticalLabelPosition=bottom;verticalAlign=top;align=center;html=1;fontSize=12;fontStyle=0;aspect=fixed;shape=mxgraph.aws4.resourceIcon;resIcon=mxgraph.aws4.api_gateway;" parent="1" vertex="1">
          <mxGeometry x="300" y="400" width="80" height="80" as="geometry" />
        </mxCell>
        <mxCell id="uFCBzY3tjTY6VTeMIP43-36" style="edgeStyle=orthogonalEdgeStyle;rounded=0;orthogonalLoop=1;jettySize=auto;html=1;" parent="1" source="uFCBzY3tjTY6VTeMIP43-3" target="uFCBzY3tjTY6VTeMIP43-2" edge="1">
          <mxGeometry relative="1" as="geometry" />
        </mxCell>
        <mxCell id="uFCBzY3tjTY6VTeMIP43-37" value="APP API" style="edgeLabel;html=1;align=center;verticalAlign=middle;resizable=0;points=[];" parent="uFCBzY3tjTY6VTeMIP43-36" vertex="1" connectable="0">
          <mxGeometry x="0.1528" y="3" relative="1" as="geometry">
            <mxPoint x="-19" y="3" as="offset" />
          </mxGeometry>
        </mxCell>
        <mxCell id="uFCBzY3tjTY6VTeMIP43-39" style="edgeStyle=orthogonalEdgeStyle;rounded=0;orthogonalLoop=1;jettySize=auto;html=1;" parent="1" source="uFCBzY3tjTY6VTeMIP43-3" target="uFCBzY3tjTY6VTeMIP43-1" edge="1">
          <mxGeometry relative="1" as="geometry" />
        </mxCell>
        <mxCell id="uFCBzY3tjTY6VTeMIP43-40" value="Authenticate" style="edgeLabel;html=1;align=center;verticalAlign=middle;resizable=0;points=[];" parent="uFCBzY3tjTY6VTeMIP43-39" vertex="1" connectable="0">
          <mxGeometry x="0.122" y="-1" relative="1" as="geometry">
            <mxPoint as="offset" />
          </mxGeometry>
        </mxCell>
        <mxCell id="uFCBzY3tjTY6VTeMIP43-3" value="Client" style="sketch=0;outlineConnect=0;fontColor=#232F3E;gradientColor=none;fillColor=#232F3D;strokeColor=none;dashed=0;verticalLabelPosition=bottom;verticalAlign=top;align=center;html=1;fontSize=12;fontStyle=0;aspect=fixed;pointerEvents=1;shape=mxgraph.aws4.client;" parent="1" vertex="1">
          <mxGeometry x="50" y="402" width="78" height="76" as="geometry" />
        </mxCell>
        <mxCell id="uFCBzY3tjTY6VTeMIP43-4" value="FetchJournalByIdentifierAndYearFunction&lt;div&gt;GET /journal/{identifier}/{year}&lt;/div&gt;" style="outlineConnect=0;dashed=0;verticalLabelPosition=bottom;verticalAlign=top;align=center;html=1;shape=mxgraph.aws3.lambda_function;fillColor=#F58534;gradientColor=none;" parent="1" vertex="1">
          <mxGeometry x="650" y="50" width="69" height="72" as="geometry" />
        </mxCell>
        <mxCell id="uFCBzY3tjTY6VTeMIP43-5" value="SearchJournalByQueryFunction&lt;div&gt;GET /journal&lt;/div&gt;" style="outlineConnect=0;dashed=0;verticalLabelPosition=bottom;verticalAlign=top;align=center;html=1;shape=mxgraph.aws3.lambda_function;fillColor=#F58534;gradientColor=none;" parent="1" vertex="1">
          <mxGeometry x="650" y="170" width="69" height="72" as="geometry" />
        </mxCell>
        <mxCell id="uFCBzY3tjTY6VTeMIP43-6" value="CreateJournalFunction&lt;div&gt;POST /journal&lt;/div&gt;" style="outlineConnect=0;dashed=0;verticalLabelPosition=bottom;verticalAlign=top;align=center;html=1;shape=mxgraph.aws3.lambda_function;fillColor=#F58534;gradientColor=none;" parent="1" vertex="1">
          <mxGeometry x="650" y="288" width="69" height="72" as="geometry" />
        </mxCell>
        <mxCell id="uFCBzY3tjTY6VTeMIP43-7" value="FetchPublisherByIdentifierAndYearFunction&lt;div&gt;GET /publisher/{identifier}/{year}&lt;/div&gt;" style="outlineConnect=0;dashed=0;verticalLabelPosition=bottom;verticalAlign=top;align=center;html=1;shape=mxgraph.aws3.lambda_function;fillColor=#F58534;gradientColor=none;" parent="1" vertex="1">
          <mxGeometry x="650" y="480" width="69" height="72" as="geometry" />
        </mxCell>
        <mxCell id="uFCBzY3tjTY6VTeMIP43-8" value="SearchPublisherByQueryFunction&lt;div&gt;GET /publisher&lt;/div&gt;" style="outlineConnect=0;dashed=0;verticalLabelPosition=bottom;verticalAlign=top;align=center;html=1;shape=mxgraph.aws3.lambda_function;fillColor=#F58534;gradientColor=none;" parent="1" vertex="1">
          <mxGeometry x="650" y="600" width="69" height="72" as="geometry" />
        </mxCell>
        <mxCell id="uFCBzY3tjTY6VTeMIP43-9" value="CreatePublisherFunction&lt;div&gt;POST /publisher&lt;/div&gt;" style="outlineConnect=0;dashed=0;verticalLabelPosition=bottom;verticalAlign=top;align=center;html=1;shape=mxgraph.aws3.lambda_function;fillColor=#F58534;gradientColor=none;" parent="1" vertex="1">
          <mxGeometry x="650" y="720" width="69" height="72" as="geometry" />
        </mxCell>
        <mxCell id="uFCBzY3tjTY6VTeMIP43-11" value="FetchSeriesByIdentifierAndYearFunction&lt;br&gt;GET /series/{identifier}/{year}" style="outlineConnect=0;dashed=0;verticalLabelPosition=bottom;verticalAlign=top;align=center;html=1;shape=mxgraph.aws3.lambda_function;fillColor=#F58534;gradientColor=none;" parent="1" vertex="1">
          <mxGeometry x="1020.5" y="50" width="69" height="72" as="geometry" />
        </mxCell>
        <mxCell id="uFCBzY3tjTY6VTeMIP43-12" value="SearchSeriesByQueryFunction&lt;div&gt;GET /series&lt;/div&gt;" style="outlineConnect=0;dashed=0;verticalLabelPosition=bottom;verticalAlign=top;align=center;html=1;shape=mxgraph.aws3.lambda_function;fillColor=#F58534;gradientColor=none;" parent="1" vertex="1">
          <mxGeometry x="1020.5" y="170" width="69" height="72" as="geometry" />
        </mxCell>
        <mxCell id="uFCBzY3tjTY6VTeMIP43-13" value="CreateSeriesFunction&lt;div&gt;POST /series&lt;/div&gt;" style="outlineConnect=0;dashed=0;verticalLabelPosition=bottom;verticalAlign=top;align=center;html=1;shape=mxgraph.aws3.lambda_function;fillColor=#F58534;gradientColor=none;" parent="1" vertex="1">
          <mxGeometry x="1020.5" y="288" width="69" height="72" as="geometry" />
        </mxCell>
        <mxCell id="uFCBzY3tjTY6VTeMIP43-17" value="FetchSerialPublicationByIdentifierAndYearFunction&lt;br&gt;GET /serial-publication/{identifier}/{year}" style="outlineConnect=0;dashed=0;verticalLabelPosition=bottom;verticalAlign=top;align=center;html=1;shape=mxgraph.aws3.lambda_function;fillColor=#F58534;gradientColor=none;" parent="1" vertex="1">
          <mxGeometry x="1020.5" y="480" width="69" height="72" as="geometry" />
        </mxCell>
        <mxCell id="uFCBzY3tjTY6VTeMIP43-18" value="SearchSerialPublicationByQueryFunction&lt;div&gt;GET /serial-publication&lt;/div&gt;" style="outlineConnect=0;dashed=0;verticalLabelPosition=bottom;verticalAlign=top;align=center;html=1;shape=mxgraph.aws3.lambda_function;fillColor=#F58534;gradientColor=none;" parent="1" vertex="1">
          <mxGeometry x="1020.5" y="600" width="69" height="72" as="geometry" />
        </mxCell>
        <mxCell id="uFCBzY3tjTY6VTeMIP43-19" value="CreateSerialPublicationFunction&lt;div&gt;POST /serial-publication&lt;/div&gt;" style="outlineConnect=0;dashed=0;verticalLabelPosition=bottom;verticalAlign=top;align=center;html=1;shape=mxgraph.aws3.lambda_function;fillColor=#F58534;gradientColor=none;" parent="1" vertex="1">
          <mxGeometry x="1020.5" y="720" width="69" height="72" as="geometry" />
        </mxCell>
        <mxCell id="uFCBzY3tjTY6VTeMIP43-31" value="NSD Channel registry" style="sketch=0;outlineConnect=0;fontColor=#232F3E;gradientColor=none;fillColor=#ED7100;strokeColor=none;dashed=0;verticalLabelPosition=bottom;verticalAlign=top;align=center;html=1;fontSize=12;fontStyle=0;aspect=fixed;pointerEvents=1;shape=mxgraph.aws4.registry;" parent="1" vertex="1">
          <mxGeometry x="1400" y="490" width="80" height="80" as="geometry" />
        </mxCell>
        <mxCell id="uFCBzY3tjTY6VTeMIP43-41" style="edgeStyle=orthogonalEdgeStyle;rounded=0;orthogonalLoop=1;jettySize=auto;html=1;entryX=1;entryY=0.5;entryDx=0;entryDy=0;entryPerimeter=0;" parent="1" source="uFCBzY3tjTY6VTeMIP43-2" target="uFCBzY3tjTY6VTeMIP43-1" edge="1">
          <mxGeometry relative="1" as="geometry">
            <Array as="points">
              <mxPoint x="340" y="240" />
            </Array>
          </mxGeometry>
        </mxCell>
        <mxCell id="uFCBzY3tjTY6VTeMIP43-42" value="Authorize" style="edgeLabel;html=1;align=center;verticalAlign=middle;resizable=0;points=[];" parent="uFCBzY3tjTY6VTeMIP43-41" vertex="1" connectable="0">
          <mxGeometry x="-0.4615" y="-3" relative="1" as="geometry">
            <mxPoint as="offset" />
          </mxGeometry>
        </mxCell>
        <mxCell id="R9Ygl1MosucrflXkpvcj-2" value="Dataporten" style="verticalLabelPosition=bottom;html=1;verticalAlign=top;align=center;strokeColor=none;fillColor=#00BEF2;shape=mxgraph.azure.access_control;" parent="1" vertex="1">
          <mxGeometry x="1401" y="294" width="100" height="95" as="geometry" />
        </mxCell>
        <mxCell id="R9Ygl1MosucrflXkpvcj-3" style="edgeStyle=orthogonalEdgeStyle;rounded=0;orthogonalLoop=1;jettySize=auto;html=1;entryX=0;entryY=0.59;entryDx=0;entryDy=0;entryPerimeter=0;" parent="1" target="R9Ygl1MosucrflXkpvcj-2" edge="1">
          <mxGeometry relative="1" as="geometry">
            <mxPoint x="1240" y="344" as="sourcePoint" />
            <Array as="points">
              <mxPoint x="1242" y="344" />
              <mxPoint x="1242" y="350" />
              <mxPoint x="1390" y="350" />
            </Array>
          </mxGeometry>
        </mxCell>
        <mxCell id="R9Ygl1MosucrflXkpvcj-4" value="Authenticate&lt;div&gt;(for POST)&lt;/div&gt;" style="edgeLabel;html=1;align=center;verticalAlign=middle;resizable=0;points=[];" parent="R9Ygl1MosucrflXkpvcj-3" vertex="1" connectable="0">
          <mxGeometry x="-0.1992" y="-1" relative="1" as="geometry">
            <mxPoint x="12" as="offset" />
          </mxGeometry>
        </mxCell>
      </root>
    </mxGraphModel>
  </diagram>
</mxfile>
